<svg width="320" height="320" viewBox="0 0 320 320" fill="none" xmlns="http://www.w3.org/2000/svg">
<path d="M172.048 193.776C171.63 188.785 171.475 183.775 171.584 178.768C171.584 178.352 170.976 178.24 170.928 178.768C170.405 183.787 170.459 188.849 171.088 193.856C171.099 193.983 171.16 194.101 171.257 194.184C171.355 194.266 171.481 194.307 171.608 194.296C171.736 194.285 171.853 194.225 171.936 194.127C172.019 194.03 172.059 193.903 172.048 193.776ZM164.8 191.904C164.829 191.969 164.876 192.024 164.936 192.063C164.996 192.101 165.065 192.122 165.136 192.122C165.207 192.122 165.277 192.101 165.337 192.063C165.396 192.024 165.443 191.969 165.472 191.904C165.248 186.864 165.04 181.808 164.816 176.752C164.816 176.667 164.783 176.586 164.723 176.526C164.663 176.466 164.581 176.432 164.496 176.432C164.411 176.432 164.33 176.466 164.27 176.526C164.21 176.586 164.176 176.667 164.176 176.752C163.963 180.569 164.006 184.397 164.304 188.208C164.315 189.456 164.481 190.698 164.8 191.904ZM206.736 192.544C206.893 195.016 206.617 197.496 205.92 199.872C205.92 200.24 206.992 202.272 207.664 196.432C208.086 192.488 207.263 188.51 205.312 185.056C205.104 184.672 204.56 185.056 204.736 185.392C205.844 187.63 206.522 190.056 206.736 192.544ZM187.344 76.8801C187.333 78.0842 187.74 79.2548 188.496 80.1921C189.456 81.0561 190.944 77.6961 195.408 77.1681V72.8481C192.294 73.076 189.395 74.5252 187.344 76.8801ZM229.408 192.448C229.408 189.152 229.12 185.872 229.056 182.576C229.056 182.128 228.368 182.224 228.368 182.672C228.368 186.08 228.368 189.52 228.512 192.944C228.576 195.2 229.456 194.368 229.408 192.448ZM198.4 72.7681L198.496 77.0881C204.016 77.2801 205.616 81.4401 206.208 80.1441C206.464 79.5521 207.504 76.5921 206.944 76.0801C204.595 73.9712 201.557 72.7933 198.4 72.7681ZM83.5683 46.8001C82.7363 47.2481 83.5683 49.2161 84.2243 48.7841C84.8803 48.3521 84.4803 46.2721 83.5683 46.8001ZM82.5123 41.9841C81.3923 42.0961 81.3603 43.2481 82.5123 43.3921C83.3468 43.4568 84.1561 43.7084 84.8803 44.1281C85.3123 44.4161 85.7763 43.8401 85.5203 43.4401C85.1907 42.9549 84.7392 42.5649 84.2112 42.3094C83.6833 42.0538 83.0973 41.9416 82.5123 41.9841ZM79.6483 47.6161C80.0765 48.7392 80.4136 49.8949 80.6563 51.0721C80.9283 52.4481 80.9123 52.8161 80.8483 52.8961C80.5899 52.9044 80.3328 52.9366 80.0803 52.9921C79.6163 53.1521 79.6163 53.7441 80.3363 54.0801C80.5316 54.1788 80.7521 54.2163 80.969 54.1877C81.1859 54.1592 81.3892 54.0659 81.5523 53.9201C82.3843 53.1201 82.0323 50.8641 80.5283 47.2161C80.4753 47.0994 80.378 47.0085 80.258 46.9635C80.138 46.9185 80.005 46.923 79.8883 46.9761C79.7716 47.0291 79.6808 47.1264 79.6358 47.2464C79.5907 47.3664 79.5953 47.4994 79.6483 47.6161Z" fill="#27272A"/>
<path d="M311.552 240.352H288.848C290.944 229.152 278.496 221.264 270.752 225.392C269.957 221.511 267.772 218.054 264.608 215.671C261.444 213.287 257.518 212.141 253.568 212.448C253.147 209.699 252.107 207.081 250.527 204.792C248.948 202.503 246.869 200.602 244.448 199.232C243.696 190.272 244.032 181.152 244.048 172.304C245.408 172.4 248.672 172.704 248.144 171.408C246.544 167.44 243.808 160.816 241.744 157.008C242.576 157.008 243.52 157.008 243.52 156.16C243.776 140.8 244.272 108.576 244.272 108.576C244.528 89.5041 245.168 67.5841 231.776 51.8881C231.36 51.3921 230.784 51.2161 230.416 51.7281C224.968 59.4412 221.386 68.3144 219.952 77.6481C219.408 68.5281 218.688 58.2241 217.28 48.0321C214.88 30.7361 209.088 19.1201 199.68 12.2241C198.784 11.5681 197.472 10.5121 196.88 10.9281C182.192 21.3281 177.872 39.4721 176.848 52.8641C176.48 58.5601 176.368 64.3361 176.512 70.0641C174.544 62.7201 167.792 48.3841 165.312 51.8401C153.76 68.3841 154.736 89.7601 155.712 108.624C157.312 144.56 157.792 153.824 158 156.24C158 157.024 158 157.552 160.208 157.312C155.552 169.648 154.592 171.712 155.008 172.064C155.424 172.416 157.072 172.304 157.872 172.256C157.76 177.648 159.04 203.856 158.864 205.248C157.703 206.663 156.769 208.25 156.096 209.952C153.369 210.694 150.838 212.026 148.681 213.853C146.525 215.681 144.796 217.959 143.616 220.528C141.488 220.32 139.342 220.673 137.392 221.552C135.472 200.256 131.536 168.064 126.72 146.624C134.96 147.696 138.896 144 140.8 140.8C145.6 132.432 142.4 118.528 136.448 110.832C131.41 100.114 124.022 90.6698 114.832 83.2001C115.808 81.3441 113.232 72.9121 106.688 69.4401C103.888 67.9521 100.16 67.8401 98.4482 66.2401C94.7842 62.6561 97.2482 53.1201 89.6162 50.6241C89.1226 46.6806 88.3038 42.7847 87.1682 38.9761C96.7682 34.8481 96.2722 23.6801 90.6082 20.5121C85.3282 17.5681 82.4162 21.7441 78.9442 22.9121C74.1442 24.5121 70.0642 21.0561 63.7602 21.0561C51.8722 21.0561 49.0562 33.0241 48.4322 33.6161C47.8082 34.2081 47.5682 37.5841 42.2722 39.6641C36.6402 41.8561 29.4722 41.9841 26.4162 48.6081C23.8242 54.4001 28.8002 61.4721 25.3762 66.8321C23.3762 70.0321 16.1922 70.2241 10.9762 78.5921C5.39224 87.5041 7.26424 99.6001 14.9602 104.624C8.33624 119.504 8.64024 135.328 15.7442 145.984C22.2402 155.696 32.8322 159.344 44.3362 159.04C43.7602 186.144 44.0002 213.168 42.5602 240.448C37.3602 240.448 32.1442 240.56 27.0402 240.656C26.896 240.656 26.7576 240.713 26.6556 240.815C26.5535 240.917 26.4962 241.056 26.4962 241.2C26.4962 241.344 26.5535 241.483 26.6556 241.585C26.7576 241.687 26.896 241.744 27.0402 241.744C31.6002 241.84 36.9922 241.936 42.4642 241.936C41.5842 257.824 40.4002 273.936 38.9442 289.728C38.8002 291.328 42.5442 291.232 44.1282 291.328C43.6907 293.55 43.5242 295.818 43.6322 298.08C42.4162 299.152 40.6402 306.48 40.7362 307.84C40.7362 308.128 40.8642 308.304 41.0562 308.336C42.8162 308.624 69.4082 309.936 70.6402 308.48C70.671 308.424 70.6872 308.36 70.6872 308.296C70.6872 308.232 70.671 308.169 70.6402 308.112C68.8642 303.312 62.6402 299.264 57.5522 297.952L58.9282 291.824C59.9842 291.824 62.1282 291.984 62.4322 291.424C69.5842 275.296 76.0962 258.64 81.7762 241.952H105.04C109.472 256.178 113.384 270.561 116.768 285.072C118.128 290.928 117.184 290.608 120.96 290.784C120.942 293.066 121.217 295.34 121.776 297.552C120.549 300.44 119.808 303.511 119.584 306.64C119.553 306.694 119.537 306.754 119.537 306.816C119.537 306.878 119.553 306.939 119.584 306.992C120.592 308.272 149.312 309.344 151.28 308.176C152.88 307.152 144.112 298.656 136.336 297.088C136.448 295.045 136.4 292.996 136.192 290.96C137.552 290.96 140.688 291.328 140.688 289.984C140.688 274.88 140.176 258.704 139.088 241.984H311.6C311.817 241.978 312.022 241.886 312.17 241.728C312.319 241.571 312.399 241.361 312.392 241.144C312.386 240.928 312.294 240.723 312.136 240.574C311.979 240.426 311.769 240.346 311.552 240.352ZM94.8322 211.808C98.8162 222.768 100.944 229.584 104.544 240.496H82.2562C86.1442 228.992 91.5202 211.696 95.0562 197.152C96.2562 192.352 98.6722 194.384 97.7922 198.288C96.7682 203.104 94.7842 211.696 94.8322 211.808ZM135.2 297.248C132.464 298.496 125.6 298.416 122.928 297.648C122.752 295.36 122.288 293.072 122.256 290.784L134.832 290.928C134.944 293.04 135.072 295.136 135.2 297.248ZM45.6002 159.024C59.0402 158.352 75.0242 152.208 88.4002 142.56C88.6882 142.352 88.9442 142.304 89.0242 142.032C89.1042 141.76 89.0242 141.536 88.5442 140.848C92.3016 139.089 96.247 137.763 100.304 136.896C101.904 136.608 106.592 135.712 107.44 133.168L110.928 133.072C114.288 140.032 119.632 144.864 125.616 146.368L128.816 165.392C102.384 174.496 78.2562 176.432 45.6962 172C45.8082 167.696 45.8242 163.328 45.6482 159.024H45.6002ZM87.5362 61.5041C85.2962 67.3121 80.6242 67.5521 81.3762 68.9281V69.4241C81.6802 71.9681 82.2722 77.2001 78.1762 80.8961C71.2642 78.1441 66.9762 74.9761 63.7762 70.3681C64.4482 69.2001 63.7762 64.0961 63.7762 64.0481C62.7842 58.8321 58.2402 57.7761 59.2642 53.0561C59.4082 52.3681 59.6162 51.9681 59.8882 51.8401C60.7842 51.4401 63.0882 54.5281 63.5682 50.9441C64.3202 45.8241 65.7602 41.8721 70.8322 40.4321C75.5362 39.1041 80.0802 41.3761 86.1602 39.2801C87.5362 44.9761 89.9042 55.2801 87.5362 61.5041ZM78.4162 82.3041C81.1842 81.6161 83.5522 74.8161 82.9762 71.0081C87.2944 71.6181 91.547 72.625 95.6802 74.0161C110.72 79.3761 123.776 90.8321 132.592 106.384C126.576 100.624 118.704 97.3761 111.584 97.8241C109.314 94.1039 106.706 90.6011 103.792 87.3601C103.749 87.312 103.696 87.2736 103.636 87.2473C103.577 87.221 103.513 87.2075 103.448 87.2075C103.383 87.2075 103.319 87.221 103.26 87.2473C103.201 87.2736 103.148 87.312 103.104 87.3601C103.058 87.4048 103.022 87.4583 102.997 87.5174C102.972 87.5765 102.959 87.6399 102.959 87.7041C102.959 87.7682 102.972 87.8317 102.997 87.8908C103.022 87.9499 103.058 88.0033 103.104 88.0481C105.661 91.2269 108.017 94.5613 110.16 98.0321C108.04 98.3521 105.995 99.057 104.128 100.112C103.826 100.142 103.526 100.195 103.232 100.272C102.354 100.471 101.46 100.594 100.56 100.64C96.8162 100.64 96.6722 99.0401 95.3282 99.2161C92.6562 99.4881 93.4402 104.768 99.5842 105.888C98.4802 108.976 97.9842 115.776 100.048 118.688C97.5842 118.688 96.0002 118.176 95.9042 120.688C95.8721 121.141 95.8721 121.595 95.9042 122.048C95.1109 121.538 94.213 121.212 93.2768 121.096C92.3407 120.979 91.3903 121.075 90.4962 121.376C88.8162 122.016 85.6162 125.36 84.0002 126.752C84.0002 126.08 84.0002 125.056 83.4082 124.992C73.2482 124.144 57.8082 123.904 48.5602 124.16C48.0532 117.632 48.1389 111.072 48.8162 104.56C48.8438 104.426 48.8172 104.287 48.7422 104.173C48.6671 104.059 48.5499 103.98 48.4162 103.952C48.2826 103.924 48.1434 103.951 48.0294 104.026C47.9154 104.101 47.8358 104.218 47.8082 104.352C47.2962 107.232 46.3042 118.976 47.3442 124.208L34.2402 125.072C34.1435 125.081 34.0518 125.12 33.9772 125.182C33.9027 125.244 33.8489 125.328 33.8229 125.421C33.7969 125.515 33.7999 125.614 33.8316 125.706C33.8632 125.798 33.9221 125.878 34.0002 125.936C34.0453 125.976 34.099 126.006 34.1572 126.023C34.2154 126.039 34.2766 126.043 34.3362 126.032C50.4902 125.043 66.6927 125.15 82.8322 126.352C82.9066 131.758 84.5339 137.029 87.5202 141.536C66.1762 156.912 31.0562 166.96 16.7202 145.168C6.40024 129.6 11.5202 102.4 30.6562 85.7921C39.7965 77.9554 50.9172 72.7853 62.8002 70.8481C65.6962 76.3681 76.3202 82.7841 78.4002 82.2721L78.4162 82.3041ZM102.128 101.696C101.313 102.557 100.628 103.533 100.096 104.592C97.1042 104.144 95.4082 102.576 95.1202 101.28C94.8962 100.384 95.4242 100.016 96.5282 100.768C98.2649 101.615 100.211 101.938 102.128 101.696ZM109.904 110.512C109.823 110.605 109.775 110.723 109.768 110.846C109.76 110.97 109.794 111.092 109.863 111.194C109.933 111.296 110.034 111.373 110.151 111.412C110.269 111.45 110.396 111.449 110.512 111.408C111.808 110.896 112.416 111.008 112.512 111.248C112.608 111.488 112.096 112.672 111.056 113.184C110.384 113.52 109.088 113.824 108.096 112.016C107.28 110.544 108.672 108.928 108.096 108.592C107.52 108.256 105.888 110.736 107.28 112.912C106.993 113.123 106.649 113.243 106.292 113.257C105.936 113.272 105.584 113.179 105.28 112.992C104.576 112.448 104.096 110.928 104.912 108.192C105.216 107.136 103.424 106.864 103.2 111.392C103.104 112.016 102.416 115.856 102.208 117.152C102 118.448 101.712 118.544 101.68 118.56C101.648 118.576 101.504 118.56 101.376 118.384C100.24 117.104 98.8802 110.592 101.056 105.584C101.733 103.895 102.888 102.441 104.381 101.4C105.873 100.36 107.638 99.7786 109.456 99.7281C110.526 99.7076 111.585 99.9459 112.542 100.423C113.5 100.899 114.328 101.6 114.957 102.466C115.585 103.332 115.995 104.337 116.152 105.395C116.308 106.453 116.207 107.533 115.856 108.544C115.684 109.082 115.391 109.573 115 109.981C114.609 110.388 114.13 110.701 113.6 110.896C113.418 110.584 113.164 110.319 112.86 110.123C112.556 109.927 112.209 109.805 111.85 109.768C111.49 109.73 111.126 109.778 110.788 109.907C110.45 110.037 110.147 110.244 109.904 110.512ZM98.1282 124.064C97.9322 123.512 97.5541 123.044 97.0562 122.736L97.2482 120.144H104.832C104.832 121.008 105.072 123.552 105.072 123.552C102.749 123.562 100.428 123.733 98.1282 124.064ZM103.088 118.704C103.511 116.956 103.815 115.181 104 113.392C104.52 113.959 105.227 114.319 105.991 114.407C106.755 114.495 107.525 114.305 108.16 113.872L108.416 114.048C107.732 117.172 107.645 120.396 108.16 123.552H106.56C106.604 122.038 106.437 120.525 106.064 119.056C105.6 118.64 103.792 118.704 103.088 118.704ZM90.7682 122.576C91.8406 122.308 92.9648 122.328 94.0268 122.634C95.0889 122.941 96.0512 123.522 96.8162 124.32C97.1042 124.8 97.0562 124.96 97.0402 125.008C97.0242 125.056 96.0802 125.184 95.4402 125.152C94.4947 124.999 93.5251 125.133 92.6562 125.536C91.3371 126.594 90.4728 128.117 90.2402 129.792C90.0002 133.872 101.792 133.36 105.824 133.232C102.848 136.272 93.9842 135.584 87.9842 139.776C85.8875 136.159 84.5534 132.152 84.0642 128C85.1202 127.52 89.0722 123.312 90.7682 122.576ZM140.8 137.792C137.344 147.888 126.512 145.296 126.064 145.184C118.512 143.28 114.144 136.24 112.496 132.976C114.288 132.56 113.776 130.8 113.6 129.104L127.552 128.784C128.672 130.912 131.328 130.208 131.2 128.08C131.217 127.617 131.07 127.163 130.787 126.796C130.504 126.43 130.101 126.174 129.649 126.073C129.196 125.972 128.723 126.033 128.311 126.245C127.899 126.457 127.574 126.806 127.392 127.232C125.392 127.056 115.552 127.328 113.488 127.552C113.248 123.264 113.488 123.568 109.536 123.584C109.168 120.577 109.168 117.536 109.536 114.528C110.374 114.684 111.241 114.541 111.984 114.123C112.727 113.704 113.299 113.038 113.6 112.24C116.256 111.904 118.928 107.296 116.576 102.368C116.136 101.541 115.529 100.814 114.794 100.233C114.059 99.6516 113.211 99.2292 112.304 98.9921C124.512 98.6721 135.568 108.512 139.984 120.224C140.208 120.224 140.352 120.064 139.984 120.224C142.257 125.814 142.545 132.015 140.8 137.792ZM57.6002 291.792C57.0914 293.808 56.7173 295.855 56.4802 297.92C52.5885 298.323 48.6679 298.366 44.7682 298.048C45.0242 295.824 45.2642 293.616 45.5042 291.392L57.6002 291.792ZM270.88 226.336C274.368 223.472 289.792 227.12 287.488 240.4H138.992L137.6 222.672C145.712 219.856 151.664 224.144 153.76 229.36C154.128 230.336 156.192 229.504 152.976 225.488C150.933 222.962 148.047 221.258 144.848 220.688C152.592 205.776 174.512 208.16 178.768 224.192C178.992 225.04 180.256 224.624 180.032 223.776C178.748 219.048 175.73 214.978 171.578 212.377C167.426 209.776 162.446 208.836 157.632 209.744C158.989 207.017 160.996 204.666 163.477 202.898C165.958 201.131 168.837 200.002 171.857 199.612C174.878 199.221 177.949 199.581 180.798 200.659C183.647 201.736 186.187 203.5 188.192 205.792C189.664 207.392 194.592 216.768 196.192 217.872C194.877 220.128 194.053 222.636 193.776 225.232C191.798 225.957 190 227.1 188.503 228.582C187.007 230.065 185.847 231.853 185.104 233.824C185.051 233.945 185.048 234.082 185.096 234.205C185.144 234.328 185.239 234.427 185.36 234.48C185.481 234.533 185.618 234.536 185.741 234.488C185.864 234.44 185.963 234.345 186.016 234.224C186.984 231.982 188.52 230.03 190.472 228.563C192.424 227.095 194.726 226.162 197.149 225.855C199.572 225.548 202.033 225.878 204.289 226.813C206.546 227.747 208.52 229.254 210.016 231.184C210.122 231.333 210.283 231.433 210.463 231.463C210.643 231.493 210.828 231.45 210.976 231.344C211.125 231.238 211.225 231.077 211.255 230.897C211.285 230.717 211.242 230.533 211.136 230.384C209.293 227.943 206.76 226.111 203.865 225.125C200.971 224.138 197.846 224.041 194.896 224.848C195.366 222.3 196.347 219.874 197.78 217.716C199.213 215.557 201.067 213.711 203.232 212.288C205.85 210.61 208.851 209.624 211.954 209.424C215.057 209.224 218.16 209.815 220.972 211.142C223.784 212.47 226.212 214.49 228.029 217.013C229.846 219.537 230.993 222.48 231.36 225.568C231.395 225.728 231.486 225.869 231.618 225.966C231.749 226.063 231.911 226.109 232.073 226.095C232.236 226.081 232.388 226.009 232.501 225.891C232.614 225.774 232.681 225.619 232.688 225.456C232.264 221.934 230.902 218.591 228.743 215.776C226.584 212.961 223.708 210.779 220.416 209.456C221.484 206.639 223.257 204.143 225.565 202.207C227.873 200.271 230.64 198.96 233.6 198.4C242.944 196.96 250.96 204.144 252.144 212.608C249.696 213.013 247.372 213.968 245.346 215.401C243.32 216.834 241.646 218.707 240.448 220.88C240.16 221.424 241.04 221.904 241.344 221.376C243.091 218.423 245.76 216.126 248.939 214.837C252.119 213.547 255.634 213.338 258.944 214.24C262.129 215.255 264.9 217.272 266.844 219.992C268.788 222.711 269.8 225.986 269.728 229.328C269.728 229.76 270.304 230.304 270.736 230C270.912 229.888 271.424 229.52 270.896 226.336H270.88ZM178.32 53.7281C189.296 51.8081 200.72 51.4721 216.48 52.6401C219.008 74.3841 219.376 94.8641 219.776 116.736C216.704 109.952 213.584 100.048 213.632 93.2161C213.617 85.2685 211.685 77.4417 208 70.4001C203.616 62.0321 197.68 56.1121 191.216 63.0561C182.256 72.6561 182.896 84.2401 183.072 97.0881C182.479 102.802 181.25 108.431 179.408 113.872C178.848 87.2001 177.296 67.5521 178.32 53.7281ZM242.448 155.712C241.271 155.528 240.073 155.528 238.896 155.712L239.056 143.104C239.103 142.818 239.084 142.526 239.001 142.249C238.918 141.971 238.773 141.717 238.576 141.504C234.912 138.432 224.656 128.544 221.264 119.728C221.264 110.448 221.12 101.04 220.752 91.7601C228.864 91.5201 236.448 91.6161 242.832 91.7601C243.472 107.36 242.272 134.624 242.448 155.712ZM178.544 198.512C175.305 197.792 171.936 197.901 168.751 198.83C165.565 199.759 162.665 201.476 160.32 203.824C160.208 200.384 159.504 179.008 159.264 172.288L177.44 171.936C177.392 175.184 178.24 195.376 178.544 198.512ZM213.968 104.256C216.896 116.368 222.144 129.312 237.664 142.48C237.664 146.8 237.168 157.728 237.456 161.888C237.136 161.888 213.584 162.048 211.856 162.192C213.646 142.935 214.351 123.592 213.968 104.256ZM183.424 104.496C184.496 124.096 186.464 143.6 189.296 162.544C185.376 162.448 166.992 161.888 164.32 162.016C164.32 159.392 163.664 144.288 163.6 142.816C173.791 132.24 180.68 118.924 183.424 104.496ZM178.624 171.904C179.776 171.904 182.32 172.176 182.176 171.04C181.457 168.538 180.476 166.12 179.248 163.824L189.456 163.968C189.696 165.44 189.92 166.912 190.144 168.384C188.64 169.984 185.6 179.264 185.184 180.944C185.152 181.056 185.147 181.173 185.169 181.287C185.192 181.401 185.241 181.509 185.312 181.6C185.696 182.08 186.704 182.144 187.776 182.144C183.12 189.52 185.648 198.64 187.424 203.136C185.21 201.195 182.616 199.735 179.808 198.848C180.176 195.92 178.832 174.592 178.64 171.904H178.624ZM186.816 189.248C187.155 186.778 187.959 184.395 189.184 182.224C196.565 182.52 203.956 182.44 211.328 181.984C212.208 185.456 220.224 194.56 210.272 208.24C207.571 208.606 204.978 209.536 202.66 210.969C200.341 212.403 198.351 214.308 196.816 216.56C191.152 208 185.376 199.552 186.832 189.248H186.816ZM212.56 121.696C212.32 137.824 211.328 151.952 210.144 167.408L191.312 167.904C187.76 143.312 186.24 125.712 184.912 105.504C184.544 99.7761 184.176 93.8401 184.304 88.0321C184.512 78.0641 186.544 70.9601 190.704 65.6321C196.592 58.1281 201.36 61.4721 206.032 69.7761C208.715 74.5695 210.56 79.7858 211.488 85.2001C212.928 93.3601 212.64 117.04 212.576 121.696H212.56ZM219.28 209.04C216.978 208.294 214.561 207.969 212.144 208.08C214.836 204.277 216.336 199.758 216.453 195.1C216.57 190.442 215.298 185.854 212.8 181.92C213.84 181.92 216.608 181.92 216.288 180.944C215.744 179.12 214.208 175.328 212.976 172.272C212.176 170.256 211.376 168.512 211.376 168.048C211.472 167.2 211.856 163.424 211.856 163.424C213.344 163.664 220.464 163.424 222.88 163.424C220.848 169.824 221.12 169.024 220.688 170.128C220.368 170.976 220.208 171.392 220.416 171.728C220.624 172.064 221.472 172.048 223.616 172.096C223.616 181.328 224.4 192 224.8 201.2C222.208 203.19 220.287 205.926 219.296 209.04H219.28ZM224.64 172.08L242.864 172.256C242.284 180.968 242.316 189.709 242.96 198.416C240.214 197.212 237.202 196.739 234.218 197.045C231.235 197.35 228.382 198.424 225.936 200.16C225.6 190.8 225.344 181.184 224.656 172.08H224.64ZM178.4 52.5281C179.504 39.5841 183.76 22.2561 197.6 12.3041C210.912 21.4401 214.544 37.0401 216.304 51.1681C204.96 50.3361 188.992 50.4481 178.416 52.5281H178.4ZM156.8 93.8561C160.528 93.8561 174.4 93.6641 177.6 93.6481C177.888 101.328 178.182 109.019 178.48 116.72C175.52 124.4 168.88 136.208 162.656 142C162.336 143.6 162.752 153.904 162.832 155.76C161.664 155.872 160.496 155.984 159.408 156.144C158.768 134.608 156.8 106.784 156.8 93.8561Z" fill="#27272A"/>
<path d="M79.3444 57.6801C75.0084 57.3441 73.9044 54.1921 72.9444 54.4801C72.6884 54.4801 72.5764 54.8161 72.5124 54.9921C71.1524 57.9521 72.8804 61.6321 75.9044 61.6321C76.8346 61.5324 77.7203 61.1821 78.467 60.6185C79.2137 60.055 79.7934 59.2993 80.1444 58.4321C80.1972 58.3218 80.2136 58.1976 80.1912 58.0773C80.1687 57.9571 80.1086 57.8472 80.0195 57.7634C79.9304 57.6797 79.8169 57.6264 79.6955 57.6115C79.5742 57.5965 79.4512 57.6205 79.3444 57.6801ZM78.5764 58.7841C76.4164 61.6641 72.9924 60.3841 73.3284 56.4321C73.9921 57.1667 74.8014 57.7552 75.7049 58.1601C76.6084 58.5651 77.5863 58.7775 78.5764 58.7841ZM200 127.632C199.975 127.462 199.889 127.306 199.758 127.193C199.627 127.081 199.461 127.019 199.288 127.019C199.116 127.019 198.949 127.081 198.819 127.193C198.688 127.306 198.602 127.462 198.576 127.632C198.576 130.048 199.376 159.856 199.824 163.088C199.824 163.241 199.885 163.387 199.993 163.495C200.101 163.603 200.248 163.664 200.4 163.664C200.553 163.664 200.7 163.603 200.808 163.495C200.916 163.387 200.976 163.241 200.976 163.088C201.696 152.912 200.336 138.176 200 127.632ZM73.6004 50.1441C74.1124 50.1441 74.2724 49.6001 74.1604 49.0401C73.9364 47.9201 73.0404 47.8561 72.8164 48.4961C72.5924 49.1361 72.9124 50.1441 73.6004 50.1441ZM71.9044 43.3761C71.184 43.5192 70.5348 43.9059 70.0657 44.4711C69.5967 45.0363 69.3363 45.7456 69.3284 46.4801C69.4564 47.3121 70.1444 47.3121 70.2564 46.7041C70.5924 44.9921 71.3124 45.1041 72.2084 44.5601C72.3375 44.497 72.4409 44.3914 72.5011 44.261C72.5613 44.1305 72.5747 43.9833 72.539 43.8442C72.5033 43.705 72.4206 43.5824 72.305 43.4972C72.1894 43.4119 72.0479 43.3691 71.9044 43.3761ZM235.328 193.776C235.328 194.08 235.92 193.984 235.984 193.68C236.24 192.592 235.056 180.192 235.248 176.832C235.248 176.4 234.608 176.416 234.576 176.832C234.281 182.491 234.533 188.165 235.328 193.776ZM198.528 206.784C198.848 207.024 199.344 206.64 199.136 206.288C198.528 205.216 197.664 204.384 196.752 202.736C195.353 200.124 194.545 197.237 194.387 194.278C194.23 191.319 194.726 188.362 195.84 185.616C196.016 185.216 195.376 184.976 195.184 185.392C193.824 188.514 193.271 191.927 193.576 195.319C193.881 198.71 195.034 201.971 196.928 204.8C197.356 205.54 197.896 206.209 198.528 206.784Z" fill="#27272A"/>
</svg>
